<svg xmlns="http://www.w3.org/2000/svg" width="17.491" height="17.487" viewBox="0 0 17.491 17.487"><defs><style>.a{fill:#252525;}</style></defs><path class="a" d="M8.742,6.5a4.483,4.483,0,1,0,4.483,4.483A4.476,4.476,0,0,0,8.742,6.5Zm0,7.4a2.915,2.915,0,1,1,2.915-2.915A2.92,2.92,0,0,1,8.742,13.9Zm5.713-7.582a1.046,1.046,0,1,1-1.046-1.046A1.043,1.043,0,0,1,14.455,6.314Zm2.969,1.061a5.175,5.175,0,0,0-1.413-3.664A5.209,5.209,0,0,0,12.347,2.3c-1.444-.082-5.771-.082-7.215,0A5.2,5.2,0,0,0,1.469,3.708,5.192,5.192,0,0,0,.056,7.372c-.082,1.444-.082,5.771,0,7.215a5.175,5.175,0,0,0,1.413,3.664,5.216,5.216,0,0,0,3.664,1.413c1.444.082,5.771.082,7.215,0a5.175,5.175,0,0,0,3.664-1.413,5.209,5.209,0,0,0,1.413-3.664c.082-1.444.082-5.767,0-7.211Zm-1.865,8.76A2.951,2.951,0,0,1,13.9,17.8c-1.151.457-3.882.351-5.155.351s-4.007.1-5.155-.351a2.951,2.951,0,0,1-1.662-1.662c-.457-1.151-.351-3.883-.351-5.155s-.1-4.007.351-5.155A2.951,2.951,0,0,1,3.587,4.164c1.151-.457,3.882-.351,5.155-.351s4.007-.1,5.155.351a2.951,2.951,0,0,1,1.662,1.662c.457,1.151.351,3.883.351,5.155S16.015,14.989,15.559,16.136Z" transform="translate(0.005 -2.238)"/></svg>