<svg xmlns="http://www.w3.org/2000/svg" width="19.978" height="16.226" viewBox="0 0 19.978 16.226"><defs><style>.a{fill:#252525;}</style></defs><path class="a" d="M17.925,7.425c.013.177.013.355.013.532a11.57,11.57,0,0,1-11.65,11.65A11.571,11.571,0,0,1,0,17.769a8.47,8.47,0,0,0,.989.051A8.2,8.2,0,0,0,6.072,16.07a4.1,4.1,0,0,1-3.828-2.84,5.163,5.163,0,0,0,.773.063,4.33,4.33,0,0,0,1.077-.139A4.1,4.1,0,0,1,.811,9.136V9.085a4.124,4.124,0,0,0,1.851.52A4.1,4.1,0,0,1,1.394,4.129,11.638,11.638,0,0,0,9.837,8.413a4.622,4.622,0,0,1-.1-.938,4.1,4.1,0,0,1,7.086-2.8,8.061,8.061,0,0,0,2.6-.989,4.084,4.084,0,0,1-1.8,2.256,8.208,8.208,0,0,0,2.358-.634,8.8,8.8,0,0,1-2.054,2.117Z" transform="translate(0 -3.381)"/></svg>