<svg xmlns="http://www.w3.org/2000/svg" width="19.975" height="14.985" viewBox="0 0 19.975 14.985"><defs><style>.a{fill:#252525;}</style></defs><path class="a" d="M19.845,7.809A3.033,3.033,0,0,0,16.958,4.64c-2.162-.1-4.366-.14-6.618-.14h-.7c-2.248,0-4.456.039-6.618.14A3.04,3.04,0,0,0,.136,7.817C.039,9.206,0,10.6,0,11.984s.039,2.778.133,4.171a3.043,3.043,0,0,0,2.884,3.18c2.271.105,4.6.152,6.969.148s4.694-.039,6.969-.148a3.044,3.044,0,0,0,2.887-3.18c.094-1.393.137-2.782.133-4.175S19.939,9.2,19.845,7.809Zm-11.768,8V8.145l5.658,3.832Z" transform="translate(0 -4.5)"/></svg>